<svg width="247" height="40" viewBox="0 0 247 40" fill="none" xmlns="http://www.w3.org/2000/svg">
<path d="M51.8748 35.2658V14.3279H56.3085V40H16.4443V14.3227H20.9982V35.2658H51.8748Z" fill="white"/>
<path d="M21.0449 4.73417C21.0449 5.29067 21.0475 5.72437 21.0449 6.15546C21.0266 8.41542 21.3035 8.20379 18.9077 8.21686C18.0952 8.22208 17.28 8.21686 16.4048 8.21686V0H56.3186V8.13064H51.9188V4.73417H21.0475H21.0449Z" fill="white"/>
<path d="M35.4879 33.6617C34.1946 32.6323 33.4866 31.1822 33.1025 29.6173C32.661 27.825 32.5931 25.9334 32.0496 24.1803C31.5872 22.6858 30.678 21.3299 29.9726 19.9112C29.7844 19.5323 29.4892 19.1535 29.4579 18.7564C29.3168 17.0686 29.2567 15.3756 29.1496 13.3482C25.612 13.1313 22.3854 12.9589 19.1639 12.7237C16.0653 12.499 12.9406 12.3945 9.88112 11.8981C6.27563 11.3129 3.09863 9.65383 0.465055 7.06467C0.242978 6.84521 0.0470281 6.60223 0 6.13718C0.522534 6.37754 1.05552 6.59962 1.56499 6.86088C5.43697 8.8439 9.53363 9.92032 13.8968 9.79752C18.017 9.68257 22.1345 9.45004 26.2573 9.3377C28.5434 9.27499 30.8347 9.29067 33.1208 9.38995C35.5741 9.49707 35.9268 9.936 35.9268 12.3266C35.9268 18.887 35.9268 25.4474 35.9268 32.0078C35.9268 32.5121 35.9268 33.0163 35.9268 33.518C35.7805 33.565 35.6342 33.6094 35.4879 33.6564V33.6617Z" fill="white"/>
<path d="M36.9954 33.5989C36.9954 31.629 36.9954 29.7635 36.9954 27.8981C36.9954 22.4193 37.0137 16.9406 36.9771 11.4618C36.9719 10.5421 37.288 10.1581 38.145 9.75571C40.1254 8.8256 42.1607 9.33246 44.1411 9.34552C49.5284 9.3821 54.9131 9.78183 60.2978 9.76877C64.7655 9.75832 68.9588 8.44414 72.7916 6.09274C72.9196 6.01436 73.0764 5.98562 73.2201 5.93076C73.3089 6.05616 73.3978 6.18157 73.4866 6.30698C71.9503 7.4853 70.5317 8.88046 68.8517 9.79751C64.6244 12.1071 59.9921 12.7341 55.2031 12.7864C51.6159 12.8256 48.0339 13.2776 44.4494 13.5519C44.3736 13.5571 44.3057 13.6329 44.2377 13.6695C44.2142 13.7139 44.1881 13.7479 44.175 13.7871C43.5924 15.4121 42.8217 16.998 43.5166 18.8191C43.6211 19.0908 43.2188 19.6029 42.9784 19.953C40.9823 22.8478 40.0287 26.064 39.9138 29.5571C39.872 30.8269 38.1267 33.3325 36.9876 33.5989H36.9954Z" fill="white"/>
<path d="M152.731 9.26069C153.549 11.7715 154.341 14.2117 155.229 16.9393C155.979 14.81 156.697 12.9707 157.27 11.087C157.891 9.03601 157.834 9.01772 160.154 9.28944C160.175 9.43314 160.256 9.61341 160.209 9.75188C159.143 13.0203 158.012 16.2705 157.014 19.5598C156.65 20.7591 155.814 20.375 155.067 20.4586C154.273 20.5448 153.831 20.3201 153.581 19.4501C152.99 17.3913 152.253 15.377 151.467 13.0177C150.748 15.1444 150.046 16.9289 149.557 18.7708C149.194 20.1425 148.52 20.7356 147.114 20.4586C146.822 20.4011 146.516 20.4142 146.197 20.3959C144.974 16.6911 143.762 13.0229 142.526 9.27376C142.824 9.23457 143.023 9.18754 143.227 9.18232C145.212 9.1379 145.202 9.14313 145.808 11.053C146.401 12.9263 147.018 14.7891 147.723 16.9629C148.468 14.8022 149.116 12.9629 149.735 11.1157C150.424 9.05691 150.414 9.05169 152.734 9.25809L152.731 9.26069Z" fill="white"/>
<path d="M82.6309 20.4325V9.08563C84.9614 9.19798 87.237 9.25807 89.5022 9.43311C90.6204 9.51933 91.6916 10.0236 91.9973 11.1705C92.3761 12.5944 92.2063 13.616 91.0201 14.5409C92.3683 15.4449 93.0293 16.7225 92.7576 17.8642C92.316 19.7244 90.8007 20.2653 89.2357 20.3907C87.0855 20.5605 84.9117 20.4325 82.6309 20.4325ZM85.2305 18.3188C86.4062 18.3188 87.5793 18.439 88.7079 18.2666C89.2331 18.1856 89.6746 17.5428 90.1527 17.1562C89.7269 16.6963 89.3559 15.9204 88.8673 15.8394C87.6994 15.6434 86.4767 15.7767 85.2305 15.7767V18.3188ZM85.2671 13.8616C86.4271 13.7806 87.5113 13.8015 88.5433 13.5847C88.9588 13.4984 89.6171 12.8008 89.5492 12.5448C89.4212 12.0745 88.8882 11.4527 88.4414 11.3769C87.4068 11.2045 86.3226 11.3221 85.2671 11.3221V13.859V13.8616Z" fill="white"/>
<path d="M114.581 16.8244C115.417 18.021 116.196 19.134 117 20.2862C115.302 20.7747 113.925 20.5344 113.22 18.9459C112.548 17.4384 111.503 17.0177 109.85 17.454V20.3724H107.221V9.36782C109.275 9.36782 111.3 9.24503 113.303 9.4044C115.156 9.55071 116.457 10.6977 116.81 12.5318C117.17 14.4024 116.384 15.8812 114.584 16.8244H114.581ZM109.81 15.1497C111.381 15.0896 112.993 15.6905 113.972 14.1751C114.265 13.7231 114.223 12.6702 113.886 12.2731C112.844 11.0452 111.341 11.309 109.873 11.4083C109.847 11.6983 109.813 11.9073 109.813 12.1164C109.808 13.07 109.813 14.021 109.813 15.1497H109.81Z" fill="white"/>
<path d="M118.923 9.19537C120.797 9.19537 122.586 9.05952 124.347 9.23196C126.184 9.41223 127.814 10.196 128.332 12.1921C128.846 14.1751 128.164 15.7558 126.252 16.8322C127.046 17.9922 127.806 19.1052 128.588 20.2496C126.349 20.7408 125.965 20.5945 124.765 18.8283C124.055 17.7815 123.003 17.2999 121.612 17.3835V20.3619H118.923V9.19537ZM121.614 15.1366C123.101 15.1418 124.656 15.6173 125.609 14.2065C125.92 13.7467 125.873 12.6049 125.513 12.213C124.494 11.1026 123.046 11.2803 121.614 11.424V15.1366Z" fill="white"/>
<path d="M199.984 9.08041C202.114 9.19276 204.178 9.08303 206.15 9.45664C208.901 9.97656 209.751 11.5076 209.353 14.4181C209.147 15.9361 207.138 17.3025 205.082 17.3234C204.264 17.3312 203.449 17.3234 202.487 17.3234V20.3541H199.984V9.08041ZM202.545 15.1523C203.935 15.1079 205.476 15.6539 206.493 14.3319C206.845 13.8747 206.817 12.6519 206.448 12.2052C205.463 11.0164 203.987 11.3247 202.545 11.4214V15.1523Z" fill="white"/>
<path d="M198.558 20.3045C196.308 20.7199 196.332 20.7016 195.316 18.7891C195.125 18.4312 194.613 18.102 194.203 18.0314C193.484 17.9086 192.721 18.0732 191.995 17.9792C190.519 17.7885 189.62 18.1882 189.134 19.7636C188.692 21.1902 187.334 20.0928 186.129 20.6807C187.313 17.9949 188.324 15.6879 189.348 13.3861C189.873 12.2078 190.346 10.9929 191.002 9.89297C191.232 9.5089 191.935 9.25025 192.436 9.22934C192.943 9.20844 193.766 9.40701 193.931 9.75449C195.548 13.1614 197.058 16.618 198.594 20.0615C198.623 20.1268 198.574 20.2261 198.56 20.3071L198.558 20.3045ZM194.15 15.9361C193.578 14.567 193.045 13.2921 192.444 11.8525C191.869 13.2973 191.357 14.5879 190.822 15.9361H194.15Z" fill="white"/>
<path d="M226.913 20.4142H224.321C224.768 19.3195 225.157 18.2927 225.602 17.2894C226.699 14.8048 227.788 12.3149 228.964 9.86683C229.126 9.52718 229.748 9.21628 230.15 9.22411C230.759 9.23456 231.728 9.35736 231.914 9.73881C233.596 13.2058 235.14 16.7408 236.737 20.2835C234.364 20.7068 234.388 20.6911 233.272 18.695C233.089 18.3659 232.593 18.102 232.201 18.0288C231.613 17.9165 230.989 17.9975 230.377 17.9975C228.634 17.9975 227.479 18.803 226.913 20.4142ZM230.49 11.8028C229.871 13.3574 229.369 14.6088 228.844 15.9308H232.146C231.6 14.5696 231.104 13.3312 230.492 11.8028H230.49Z" fill="white"/>
<path d="M94.751 9.25284H97.2565C97.2565 11.3926 97.2487 13.4645 97.2565 15.5363C97.2644 17.3861 98.0194 18.2796 99.574 18.311C101.173 18.3449 102.119 17.3965 102.161 15.586C102.21 13.5115 102.171 11.4344 102.171 9.26851H104.619C104.389 12.2078 105.189 15.1862 104.096 18.0811C103.511 19.633 101.52 20.7434 99.5531 20.6963C97.4838 20.6467 95.6131 19.5546 95.1167 17.94C94.8163 16.9681 94.6543 15.923 94.6125 14.904C94.5393 13.1274 94.6073 11.3456 94.6203 9.56898C94.6203 9.4906 94.6778 9.41482 94.7431 9.25284H94.751Z" fill="white"/>
<path d="M169.523 9.95304C169.092 11.9726 169.113 11.8916 167.355 11.4579C166.466 11.2385 165.479 11.2907 164.557 11.3979C164.219 11.437 163.671 12.0275 163.705 12.3071C163.752 12.6885 164.201 13.1771 164.59 13.3286C165.787 13.7911 167.033 14.1385 168.272 14.4886C169.492 14.8335 169.983 15.7898 170.122 16.8766C170.265 18.0236 169.683 18.9563 168.75 19.6408C166.688 21.1562 163.331 20.9942 160.894 19.181C161.129 18.682 161.377 18.1542 161.651 17.5664C162.694 17.8564 163.671 18.1333 164.653 18.3972C164.901 18.4651 165.181 18.5722 165.411 18.52C166.208 18.3345 167.329 18.5043 167.462 17.36C167.595 16.2261 166.469 16.3593 165.803 16.1137C165.037 15.8316 164.206 15.727 163.446 15.437C161.758 14.7943 160.88 13.6317 161.009 12.3384C161.147 10.9537 162.422 9.58465 163.932 9.20582C165.865 8.71986 167.684 9.06996 169.521 9.95827L169.523 9.95304Z" fill="white"/>
<path d="M186.143 11.1314C185.63 11.6173 185.16 12.0615 184.703 12.4952C182.393 10.938 180.34 10.9459 179.049 12.4769C177.91 13.8276 177.941 15.9387 179.12 17.232C180.465 18.7081 182.574 18.6794 184.674 17.1065C185.155 17.5664 185.646 18.0341 186.127 18.4913C184.742 20.4011 182.056 21.151 179.666 20.3619C177.33 19.5912 175.627 17.3704 175.593 15.0478C175.553 12.3619 177.074 10.1856 179.613 9.31034C182.062 8.46644 185.037 9.38088 186.143 11.134V11.1314Z" fill="white"/>
<path d="M224.977 9.26852V11.2672H221.439V20.3593H218.772V11.39H215.394V9.26852H224.974H224.977Z" fill="white"/>
<path d="M240.433 9.26593V18.2796H246.061V20.3698H237.896V9.26854H240.433V9.26593Z" fill="white"/>
<path d="M213.698 20.3933H211.354V9.2424H213.698V20.3933Z" fill="white"/>
<path d="M126.476 27.0713C125.646 28.3567 125 29.3574 124.248 30.5252C123.556 29.4331 122.942 28.4691 122.33 27.5024C122.247 27.505 122.163 27.5102 122.079 27.5128C122.079 28.4246 122.108 29.3365 122.058 30.2457C122.048 30.4573 121.771 30.6532 121.617 30.857C121.497 30.6663 121.275 30.4756 121.272 30.2823C121.243 28.6807 121.256 27.0791 121.256 25.2111C123.041 26.1464 123.143 28.0667 124.342 29.1719C125.139 27.8551 125.795 26.3789 126.897 25.245C127.036 25.3077 127.171 25.3704 127.31 25.4331C127.31 27.0634 127.323 28.6964 127.292 30.3267C127.289 30.5069 127.038 30.6846 126.902 30.8623C126.761 30.6454 126.508 30.4364 126.497 30.2117C126.453 29.2659 126.479 28.3149 126.479 27.0687L126.476 27.0713Z" fill="white"/>
<path d="M137.813 27.1209C137.813 28.2757 137.839 29.2215 137.795 30.1673C137.784 30.4024 137.549 30.6297 137.418 30.8596C137.254 30.6219 136.953 30.3894 136.946 30.149C136.904 28.5892 136.925 27.0295 136.925 25.1327C138.793 26.2169 139.545 28.0327 141.136 29.454V25.2868C141.972 25.8747 142.15 27.9648 141.748 31.0582C139.976 30.2012 139.36 28.3567 137.813 27.1261V27.1209Z" fill="white"/>
<path d="M87.9971 25.1927C89.0787 26.5017 90.1578 27.808 91.3492 29.2502C91.728 27.8864 91.1767 26.4991 91.7202 25.3443C91.8743 25.3652 92.0258 25.3887 92.18 25.4096V31.0268C90.3903 30.1882 89.9017 28.2522 88.3759 27.0765C88.3759 28.1712 88.4073 29.1457 88.355 30.1124C88.342 30.3684 88.0703 30.6088 87.9161 30.857C87.7907 30.6271 87.5634 30.3972 87.5582 30.1647C87.5268 28.6075 87.5425 27.053 87.5425 25.4958C87.694 25.3939 87.8456 25.292 87.9971 25.1927Z" fill="white"/>
<path d="M170.231 29.1745C170.519 29.7231 170.793 30.2457 171.119 30.8701C169.662 30.9589 169.487 28.3097 167.71 29.4958C167.566 29.9112 167.389 30.4285 167.211 30.9459C167.067 30.9014 166.923 30.8544 166.78 30.81V25.3835C168.248 25.5193 169.876 24.7512 170.944 26.3502C171.692 27.471 170.984 28.3724 170.229 29.1745H170.231ZM167.605 28.8165C168.656 28.456 169.5 28.2365 170.257 27.8472C170.411 27.7688 170.367 26.7604 170.208 26.695C169.419 26.3763 168.559 26.23 167.608 25.9948V28.8165H167.605Z" fill="white"/>
<path d="M102.312 25.4357H106.111C105.978 25.8276 105.426 25.9766 103.075 26.3084C103.057 26.7055 103.036 27.1209 103.01 27.6147C104.002 27.7192 104.94 27.8211 105.881 27.9204C105.873 28.0876 105.865 28.2548 105.857 28.4194C104.953 28.4795 104.052 28.5396 103.085 28.6049V30.3554H106.333C106.333 30.4782 106.333 30.601 106.33 30.7238H102.312V25.4357Z" fill="white"/>
<path d="M187.694 26.3058V27.6226C188.645 27.7244 189.586 27.8237 190.529 27.9256C190.519 28.0902 190.505 28.2574 190.495 28.422C189.591 28.4821 188.687 28.5448 187.728 28.6101V30.2561C188.818 30.3058 189.894 30.3554 190.971 30.4051C190.968 30.5148 190.963 30.6271 190.96 30.7369H186.921V25.441H190.696C190.579 25.906 190.419 25.9504 187.694 26.3084V26.3058Z" fill="white"/>
<path d="M198.009 26.5148C197.513 26.3946 197.024 26.2352 196.522 26.1647C195.075 25.9635 194.061 26.7003 193.941 28.0014C193.842 29.0987 194.785 30.2065 195.932 30.3084C196.778 30.3841 197.387 30.2065 197.322 29.1274C197.301 28.7773 197.578 28.4063 197.716 28.0458C197.881 28.4273 198.192 28.8139 198.179 29.1875C198.163 29.6839 197.952 30.5644 197.727 30.5984C196.653 30.7551 195.438 30.9694 194.482 30.6088C193.327 30.1751 192.726 28.874 193.173 27.6774C193.5 26.8048 194.286 25.8512 195.112 25.4802C196.06 25.0543 197.319 25.07 198.119 26.1281C198.082 26.2561 198.048 26.3841 198.012 26.5148H198.009Z" fill="white"/>
<path d="M215.655 28.0092C215.725 28.5892 215.906 29.1849 215.827 29.744C215.772 30.1386 215.394 30.763 215.101 30.797C213.933 30.9354 212.682 31.2698 211.637 30.3476C210.67 29.4958 210.466 28.3227 210.926 27.2803C211.263 26.5174 212.057 25.7101 212.831 25.4436C213.763 25.1196 214.989 25.0125 215.814 26.4312C214.947 26.311 214.268 26.1438 213.591 26.1386C212.42 26.1307 211.597 26.9041 211.467 28.0092C211.365 28.8819 212.295 30.0759 213.246 30.2875C214.38 30.5409 214.991 30.0654 215.057 28.8949C215.072 28.6128 215.145 28.3358 215.192 28.0563C215.347 28.038 215.501 28.0223 215.657 28.004L215.655 28.0092Z" fill="white"/>
<path d="M112.384 26.2692C111.535 26.2143 110.864 26.1072 110.208 26.1647C109.962 26.1856 109.549 26.6114 109.57 26.8152C109.602 27.1209 109.892 27.5206 110.176 27.6513C110.673 27.8786 111.36 27.7871 111.765 28.0954C112.246 28.4638 112.839 29.1483 112.781 29.6238C112.724 30.0941 111.971 30.729 111.43 30.8413C110.435 31.0477 109.304 31.2097 108.246 30.0785C108.695 30.0079 108.941 29.9112 109.16 29.953C109.45 30.0079 109.737 30.3084 109.988 30.2666C110.615 30.1647 111.619 30.0784 111.757 29.7153C112.118 28.7643 111.12 28.759 110.503 28.537C109.589 28.2104 108.436 28.0693 108.536 26.7186C108.604 25.7858 109.73 25.2137 111.127 25.3417C111.72 25.3965 112.606 25.2189 112.384 26.2718V26.2692Z" fill="white"/>
<path d="M174.631 29.6082C174.202 30.1673 173.894 30.5696 173.588 30.9694C173.46 30.8805 173.33 30.7943 173.202 30.7055C173.923 29.0282 174.576 27.3169 175.399 25.6918C175.733 25.0334 176.368 25.245 176.663 25.8877C177.392 27.4762 178.074 29.0856 178.816 30.7813C178.532 30.8074 178.181 30.8858 178.163 30.8361C177.437 28.955 175.848 29.7414 174.633 29.6056L174.631 29.6082ZM174.814 28.921H177.063C176.718 28.038 176.415 27.2594 175.987 26.1594C175.53 27.2385 175.206 28.004 174.816 28.921H174.814Z" fill="white"/>
<path d="M234.281 25.3129C234.419 25.6029 234.655 25.8851 234.675 26.183C234.73 27.0059 234.683 27.8342 234.702 28.6598C234.725 29.6918 235.245 30.2979 236.3 30.3031C237.353 30.3084 237.719 29.5977 237.766 28.6859C237.811 27.8629 237.753 27.0321 237.792 26.2091C237.805 25.9112 237.967 25.6186 238.061 25.3234C238.257 25.3495 238.456 25.3782 238.652 25.4044C238.566 26.8518 238.668 28.3462 238.338 29.7362C238.009 31.1287 236.677 30.9432 235.527 30.9093C234.349 30.8727 234.048 29.9687 233.941 29.1692C233.777 27.9439 233.897 26.682 233.897 25.4331C234.025 25.3939 234.15 25.3547 234.278 25.3129H234.281Z" fill="white"/>
<path d="M130.456 25.4723H134.192C133.392 26.6297 132.183 25.8773 131.132 26.311V27.6643C132.055 27.7427 132.945 27.8185 133.839 27.8943C133.829 28.0745 133.818 28.2548 133.808 28.4351C132.938 28.4873 132.068 28.5396 131.117 28.5997V30.2431C132.18 30.3005 133.246 30.358 134.314 30.4155C134.309 30.5252 134.304 30.6376 134.299 30.7473H130.456V25.4749V25.4723Z" fill="white"/>
<path d="M154.105 29.9504C154.832 30.0706 155.558 30.2718 156.284 30.2796C156.619 30.2822 156.956 29.9086 157.29 29.7074C157.034 29.3756 156.844 28.9445 156.509 28.7408C156.083 28.4795 155.441 28.5239 155.08 28.2156C154.649 27.8472 154.137 27.2202 154.179 26.7499C154.223 26.2613 154.806 25.6264 155.302 25.4253C155.853 25.2006 156.587 25.326 157.217 25.441C157.489 25.4906 157.693 25.9008 157.842 26.277C156.723 26.115 155.668 25.6291 154.759 26.7603C155.004 27.7453 155.911 27.7871 156.661 27.9413C157.58 28.132 158.192 28.5344 158.158 29.5376C158.121 30.5931 157.426 30.9354 156.486 30.904C155.608 30.8753 154.612 31.1862 154.105 29.9478V29.9504Z" fill="white"/>
<path d="M100.261 25.2659C99.3835 27.2751 98.618 29.0203 97.7428 31.019C97.3587 30.7996 96.7943 30.6768 96.6428 30.358C95.8982 28.7826 95.2633 27.1549 94.7695 25.4384C96.3659 26.3476 96.2744 28.3332 97.4292 29.6866C97.8002 28.874 98.1059 28.0667 98.5239 27.3221C98.9106 26.6297 98.908 25.5899 100.264 25.2685L100.261 25.2659Z" fill="white"/>
<path d="M145.876 26.3345C145.079 26.1751 144.512 26.0602 143.945 25.9452C143.974 25.7858 144.005 25.6291 144.034 25.4697H148.598C148.64 25.5925 148.682 25.7127 148.723 25.8355C148.19 26.0001 147.657 26.1621 146.881 26.3998C146.881 27.5102 146.905 28.7878 146.863 30.0654C146.855 30.3371 146.602 30.5984 146.461 30.8649C146.265 30.6036 145.915 30.3528 145.902 30.0811C145.842 28.8374 145.876 27.5886 145.876 26.3319V26.3345Z" fill="white"/>
<path d="M116.282 26.3188C115.498 26.1751 114.913 26.0654 114.328 25.9583C114.354 25.8015 114.38 25.6474 114.403 25.4906H118.889C118.918 25.6343 118.949 25.7754 118.978 25.9191C118.427 26.0471 117.873 26.1725 117.131 26.3449C117.131 27.5311 117.155 28.8139 117.11 30.0967C117.102 30.358 116.838 30.6088 116.692 30.8623C116.554 30.5984 116.308 30.3397 116.3 30.0706C116.258 28.8244 116.282 27.5781 116.282 26.3188Z" fill="white"/>
<path d="M161.745 26.3345C161.016 26.183 160.447 26.0628 159.877 25.9426L159.971 25.4697H164.496C164.528 25.6238 164.559 25.778 164.59 25.9321C163.976 26.0549 163.362 26.1777 162.586 26.3319C162.586 27.5546 162.61 28.8453 162.565 30.1359C162.558 30.3815 162.268 30.6167 162.108 30.8544C161.988 30.6193 161.771 30.3841 161.763 30.1464C161.729 28.8923 161.748 27.6382 161.748 26.3345H161.745Z" fill="white"/>
<path d="M182.68 26.3946V31.0556C181.4 30.4312 181.991 29.4671 181.899 28.7643C181.795 27.9622 181.876 27.1392 181.876 26.358C181.165 26.183 180.577 26.0393 179.989 25.8956C180.026 25.7467 180.062 25.5951 180.096 25.4462H184.572C184.608 25.5847 184.645 25.7205 184.684 25.859C184.104 26.0158 183.524 26.1699 182.683 26.3972L182.68 26.3946Z" fill="white"/>
<path d="M203.004 28.1843C203.587 27.0974 204.039 25.9635 205.016 25.2633C205.123 25.3391 205.233 25.4174 205.34 25.4932C204.985 26.1385 204.695 26.8361 204.256 27.4214C203.608 28.2835 203.185 29.164 203.323 30.2718C203.347 30.4521 203.114 30.6637 203.002 30.8596C202.829 30.7238 202.495 30.5775 202.505 30.4547C202.631 28.6885 201.45 27.5128 200.629 26.1699C200.522 25.9948 200.475 25.7832 200.264 25.2398C201.998 25.7336 201.857 27.4893 203.004 28.1843Z" fill="white"/>
<path d="M83.9712 25.2738C84.1776 25.522 84.5539 25.765 84.5643 26.021C84.6244 27.4031 84.6192 28.7904 84.5695 30.1725C84.5617 30.4103 84.2351 30.6376 84.0548 30.8675C83.9111 30.6115 83.6499 30.358 83.642 30.0994C83.6028 28.5892 83.6237 27.0765 83.6237 25.5664C83.7387 25.4671 83.8537 25.3704 83.9712 25.2711V25.2738Z" fill="white"/>
<path d="M228.237 30.7842C226.529 30.8965 225.196 29.5615 225.384 27.7796C225.554 26.1598 226.586 25.1147 228.366 25.1408C230.098 25.167 231.289 26.3662 231.266 28.067C231.245 29.7444 230.064 30.8025 228.235 30.7842H228.237ZM230.388 27.9782C230.369 26.7189 229.531 25.9194 228.251 25.9403C226.952 25.9638 226.153 26.7711 226.168 28.0461C226.181 29.2453 227.13 30.1702 228.313 30.1441C229.518 30.118 230.406 29.1879 230.39 27.9782H230.388Z" fill="white"/>
<path d="M219.495 29.4047C219.487 29.5771 219.529 29.8489 219.446 30.0788C219.362 30.3087 219.156 30.4916 219.001 30.6954C218.873 30.4654 218.644 30.2407 218.638 30.0082C218.604 28.4589 218.623 26.9096 218.623 25.2009C220.161 25.3551 221.784 24.5791 222.85 26.1859C223.605 27.3224 222.889 28.2055 222.124 29.0076C222.406 29.5458 222.68 30.0631 223.017 30.7084C221.551 30.7555 221.368 28.1585 219.495 29.4073V29.4047ZM219.498 28.5843C220.514 28.2813 221.366 28.0984 222.131 27.7352C222.286 27.662 222.239 26.5699 222.061 26.4994C221.282 26.1859 220.423 26.0762 219.498 25.8698V28.5843Z" fill="white"/>
<path d="M241.752 25.2923C244.629 24.9736 245.938 25.4569 246.113 26.8835C246.285 28.2917 245.541 28.7881 242.5 29.295C242.374 29.7783 242.249 30.259 242.126 30.7372C242.001 30.7163 241.878 30.698 241.752 30.6771V25.2897V25.2923ZM242.442 28.6784C243.49 28.2786 244.3 28.0409 245.021 27.6385C245.183 27.5497 245.144 26.6013 244.995 26.5412C244.229 26.2225 243.396 26.0657 242.44 25.8149V28.681L242.442 28.6784Z" fill="white"/>
<path d="M142.153 14.8595C142.177 18.3291 139.332 20.6309 136.087 20.6022C132.771 20.5708 130.002 18.3474 130.049 14.6871C130.096 11.0868 132.889 8.93659 136.123 8.94181C139.46 8.94704 142.279 11.3559 142.153 14.8595ZM139.52 14.7446C139.512 12.7406 138.106 11.2958 136.144 11.2775C134.14 11.2593 132.669 12.7223 132.643 14.7419C132.617 16.7119 134.018 18.2743 136.074 18.269C138.109 18.2638 139.528 16.8269 139.522 14.7446H139.52Z" fill="white"/>
</svg>
